<svg width="756" height="768" viewBox="0 0 756 768" fill="none" xmlns="http://www.w3.org/2000/svg">
<path d="M688 489H599H518L390 267.297L235.676 0H412L688 489Z" fill="url(#paint0_linear_1_20)"/>
<g filter="url(#filter0_i_1_20)">
<path d="M322.589 387.5L264.277 488.5H98L161.509 378.5L225.277 268.05L289.969 156L327.208 220.5L373.107 300L322.589 387.5Z" fill="url(#paint1_linear_1_20)"/>
</g>
<path d="M28.8974 726H4.288L49.0945 598.727H77.5568L122.425 726H97.8161L63.8228 624.828H62.8285L28.8974 726ZM29.7053 676.098H96.8217V694.617H29.7053V676.098ZM156.59 630.545L175.854 665.782L195.43 630.545H219.232L190.459 678.273L219.729 726H196.052L175.854 691.634L155.844 726H131.98L161.064 678.273L132.726 630.545H156.59ZM236.632 726V630.545H259.129V726H236.632ZM247.943 616.998C244.38 616.998 241.314 615.817 238.745 613.456C236.176 611.053 234.892 608.173 234.892 604.817C234.892 601.42 236.176 598.541 238.745 596.179C241.314 593.776 244.38 592.575 247.943 592.575C251.547 592.575 254.613 593.776 257.14 596.179C259.709 598.541 260.993 601.42 260.993 604.817C260.993 608.173 259.709 611.053 257.14 613.456C254.613 615.817 251.547 616.998 247.943 616.998ZM323.899 727.864C314.577 727.864 306.499 725.814 299.663 721.712C292.827 717.61 287.524 711.872 283.754 704.498C280.025 697.123 278.161 688.506 278.161 678.646C278.161 668.785 280.025 660.147 283.754 652.731C287.524 645.315 292.827 639.556 299.663 635.455C306.499 631.353 314.577 629.303 323.899 629.303C333.221 629.303 341.3 631.353 348.136 635.455C354.972 639.556 360.254 645.315 363.983 652.731C367.753 660.147 369.638 668.785 369.638 678.646C369.638 688.506 367.753 697.123 363.983 704.498C360.254 711.872 354.972 717.61 348.136 721.712C341.3 725.814 333.221 727.864 323.899 727.864ZM324.023 709.842C329.078 709.842 333.304 708.454 336.701 705.679C340.098 702.861 342.625 699.091 344.283 694.368C345.981 689.645 346.831 684.384 346.831 678.583C346.831 672.742 345.981 667.46 344.283 662.737C342.625 657.972 340.098 654.181 336.701 651.364C333.304 648.547 329.078 647.138 324.023 647.138C318.845 647.138 314.536 648.547 311.097 651.364C307.7 654.181 305.152 657.972 303.453 662.737C301.796 667.46 300.968 672.742 300.968 678.583C300.968 684.384 301.796 689.645 303.453 694.368C305.152 699.091 307.7 702.861 311.097 705.679C314.536 708.454 318.845 709.842 324.023 709.842ZM411.228 670.07V726H388.732V630.545H410.234V646.765H411.353C413.548 641.421 417.049 637.174 421.855 634.026C426.702 630.877 432.689 629.303 439.815 629.303C446.402 629.303 452.14 630.711 457.029 633.528C461.959 636.346 465.771 640.426 468.464 645.771C471.198 651.115 472.545 657.599 472.503 665.222V726H450.007V668.702C450.007 662.322 448.349 657.33 445.035 653.725C441.762 650.121 437.226 648.319 431.425 648.319C427.489 648.319 423.989 649.189 420.923 650.929C417.898 652.628 415.516 655.093 413.776 658.324C412.078 661.556 411.228 665.471 411.228 670.07ZM537.631 727.864C528.061 727.864 519.795 725.876 512.835 721.898C505.916 717.88 500.593 712.204 496.864 704.871C493.135 697.496 491.271 688.817 491.271 678.832C491.271 669.013 493.135 660.396 496.864 652.98C500.634 645.522 505.896 639.722 512.649 635.579C519.402 631.395 527.336 629.303 536.45 629.303C542.333 629.303 547.885 630.255 553.105 632.161C558.367 634.026 563.007 636.926 567.025 640.862C571.086 644.797 574.276 649.81 576.596 655.901C578.916 661.949 580.076 669.158 580.076 677.527V684.425H501.835V669.262H558.512C558.47 664.953 557.538 661.121 555.715 657.765C553.892 654.368 551.344 651.695 548.071 649.748C544.84 647.801 541.07 646.827 536.761 646.827C532.162 646.827 528.123 647.946 524.643 650.183C521.163 652.379 518.449 655.279 516.502 658.884C514.596 662.446 513.622 666.362 513.581 670.629V683.866C513.581 689.417 514.596 694.182 516.626 698.159C518.656 702.095 521.494 705.119 525.14 707.232C528.786 709.304 533.053 710.339 537.942 710.339C541.215 710.339 544.177 709.884 546.828 708.972C549.48 708.019 551.779 706.632 553.726 704.809C555.674 702.986 557.144 700.728 558.139 698.035L579.144 700.396C577.818 705.948 575.291 710.795 571.562 714.938C567.875 719.04 563.152 722.23 557.393 724.509C551.634 726.746 545.047 727.864 537.631 727.864ZM599.108 726V630.545H620.921V646.455H621.915C623.655 640.944 626.638 636.698 630.864 633.715C635.131 630.69 639.999 629.178 645.468 629.178C646.711 629.178 648.099 629.24 649.632 629.365C651.206 629.448 652.511 629.593 653.547 629.8V650.494C652.594 650.163 651.082 649.873 649.01 649.624C646.98 649.334 645.012 649.189 643.106 649.189C639.005 649.189 635.318 650.08 632.045 651.861C628.813 653.601 626.265 656.025 624.401 659.132C622.536 662.239 621.604 665.823 621.604 669.883V726H599.108ZM694.252 727.926C688.203 727.926 682.755 726.849 677.907 724.695C673.102 722.499 669.29 719.268 666.473 715C663.697 710.733 662.309 705.471 662.309 699.216C662.309 693.83 663.303 689.376 665.292 685.854C667.281 682.333 669.994 679.516 673.433 677.403C676.872 675.29 680.745 673.695 685.054 672.618C689.404 671.499 693.899 670.691 698.54 670.194C704.133 669.614 708.669 669.096 712.149 668.64C715.629 668.143 718.157 667.397 719.731 666.403C721.347 665.367 722.155 663.772 722.155 661.618V661.245C722.155 656.563 720.767 652.938 717.991 650.37C715.215 647.801 711.217 646.517 705.997 646.517C700.487 646.517 696.116 647.718 692.884 650.121C689.694 652.524 687.54 655.362 686.421 658.635L665.416 655.652C667.074 649.852 669.808 645.004 673.619 641.11C677.431 637.174 682.092 634.233 687.602 632.286C693.112 630.297 699.202 629.303 705.873 629.303C710.471 629.303 715.049 629.841 719.607 630.918C724.164 631.995 728.328 633.777 732.098 636.263C735.868 638.707 738.892 642.042 741.171 646.268C743.491 650.494 744.651 655.776 744.651 662.115V726H723.025V712.887H722.279C720.912 715.539 718.985 718.025 716.499 720.345C714.055 722.623 710.969 724.467 707.24 725.876C703.553 727.243 699.223 727.926 694.252 727.926ZM700.093 711.396C704.609 711.396 708.524 710.505 711.839 708.724C715.153 706.901 717.701 704.498 719.482 701.515C721.305 698.532 722.217 695.28 722.217 691.758V680.51C721.512 681.09 720.311 681.629 718.612 682.126C716.955 682.623 715.091 683.058 713.019 683.431C710.948 683.804 708.897 684.135 706.867 684.425C704.837 684.715 703.076 684.964 701.585 685.171C698.229 685.627 695.225 686.372 692.574 687.408C689.922 688.444 687.83 689.894 686.297 691.758C684.764 693.581 683.998 695.943 683.998 698.843C683.998 702.986 685.51 706.114 688.534 708.227C691.559 710.339 695.412 711.396 700.093 711.396Z" fill="white"/>
<defs>
<filter id="filter0_i_1_20" x="98" y="156" width="275.107" height="332.5" filterUnits="userSpaceOnUse" color-interpolation-filters="sRGB">
<feFlood flood-opacity="0" result="BackgroundImageFix"/>
<feBlend mode="normal" in="SourceGraphic" in2="BackgroundImageFix" result="shape"/>
<feColorMatrix in="SourceAlpha" type="matrix" values="0 0 0 0 0 0 0 0 0 0 0 0 0 0 0 0 0 0 127 0" result="hardAlpha"/>
<feOffset dx="-19" dy="35"/>
<feComposite in2="hardAlpha" operator="arithmetic" k2="-1" k3="1"/>
<feColorMatrix type="matrix" values="0 0 0 0 0.243137 0 0 0 0 0.172549 0 0 0 0 0.45098 0 0 0 1 0"/>
<feBlend mode="normal" in2="shape" result="effect1_innerShadow_1_20"/>
</filter>
<linearGradient id="paint0_linear_1_20" x1="235.676" y1="50.0195" x2="752.553" y2="311.259" gradientUnits="userSpaceOnUse">
<stop offset="0.123656" stop-color="#1C78AF"/>
<stop offset="0.508453" stop-color="#564DB1"/>
<stop offset="0.9794" stop-color="#C438A4"/>
</linearGradient>
<linearGradient id="paint1_linear_1_20" x1="98" y1="190.011" x2="425.698" y2="338.159" gradientUnits="userSpaceOnUse">
<stop offset="0.123656" stop-color="#1C78AF"/>
<stop offset="0.508453" stop-color="#564DB1"/>
<stop offset="0.9794" stop-color="#C438A4"/>
</linearGradient>
</defs>
</svg>
